<svg xmlns="http://www.w3.org/2000/svg" viewBox="0 0 246.5 196.1"><defs><style>.cls-1{fill:#5a5a5a;}.cls-2{fill:gray;}.cls-3{fill:#d9d9d8;}.cls-4{fill:#272626;stroke:#fff;stroke-miterlimit:10;}.cls-5{fill:#df1f26;}.cls-6{fill:#fff;}</style></defs><title>Asset 1</title><g id="Layer_2" data-name="Layer 2"><g id="Layer_1-2" data-name="Layer 1"><circle class="cls-1" cx="192.4" cy="15.8" r="15.8"/><circle class="cls-2" cx="90.2" cy="43.2" r="15.8"/><circle class="cls-1" cx="209.8" cy="165.1" r="15.8"/><circle class="cls-3" cx="124.6" cy="180.3" r="15.8"/><circle class="cls-3" cx="71.1" cy="122.3" r="15.8"/><path class="cls-4" d="M55.1,115.6a20.37,20.37,0,0,1-3.2,11.2,21.53,21.53,0,0,1-9.4,7.8,34.75,34.75,0,0,1-14.7,2.8c-6.8,0-12.4-1.3-16.8-3.8a21.54,21.54,0,0,1-7.6-7.4,16.46,16.46,0,0,1-2.9-9,5.82,5.82,0,0,1,1.8-4.3,6.11,6.11,0,0,1,4.5-1.8,5.31,5.31,0,0,1,3.7,1.4,10.44,10.44,0,0,1,2.6,4.2,31.14,31.14,0,0,0,2.8,5.5,10.28,10.28,0,0,0,4.3,3.6,15.32,15.32,0,0,0,7.3,1.4,16.78,16.78,0,0,0,10.1-2.9,8.6,8.6,0,0,0,3.9-7.2,7.78,7.78,0,0,0-2.1-5.6,14.52,14.52,0,0,0-5.4-3.3c-2.2-.8-5.2-1.5-8.9-2.4a64.21,64.21,0,0,1-12.4-4.1,20,20,0,0,1-7.9-6.3,16.22,16.22,0,0,1-2.9-10A16.8,16.8,0,0,1,5,75.3a20.35,20.35,0,0,1,9-6.8,36.23,36.23,0,0,1,13.8-2.4,33.14,33.14,0,0,1,11,1.6,21.89,21.89,0,0,1,7.7,4.2A18.81,18.81,0,0,1,51,77.4,13.22,13.22,0,0,1,52.4,83a6.44,6.44,0,0,1-1.8,4.5,5.71,5.71,0,0,1-4.4,2,4.89,4.89,0,0,1-3.6-1.2,18.2,18.2,0,0,1-2.7-3.9,19.75,19.75,0,0,0-4.5-6.1c-1.8-1.5-4.6-2.2-8.5-2.2a14.46,14.46,0,0,0-8.7,2.4q-3.3,2.4-3.3,5.7A6.15,6.15,0,0,0,16,87.8a10,10,0,0,0,3.1,2.6,20,20,0,0,0,4,1.7c1.3.4,3.6,1,6.7,1.8a96.31,96.31,0,0,1,10.5,3,31.47,31.47,0,0,1,8,4,17.35,17.35,0,0,1,5.2,5.9A22.32,22.32,0,0,1,55.1,115.6Z"/><path class="cls-4" d="M93.7,109.4H80.9v19.5c0,2.8-.7,4.9-2,6.3a7,7,0,0,1-10.1.1c-1.3-1.4-1.9-3.5-1.9-6.3V75.9q0-4.65,2.1-6.6c1.4-1.3,3.6-2,6.7-2H93.6a47.28,47.28,0,0,1,12.2,1.2,19.07,19.07,0,0,1,7.3,3.9,18,18,0,0,1,4.7,6.7,22.78,22.78,0,0,1,1.6,8.9c0,7-2.2,12.3-6.5,15.9S102.2,109.4,93.7,109.4ZM90.3,77.9H80.9v21h9.4a27.4,27.4,0,0,0,8.2-1,9.18,9.18,0,0,0,5-3.4,9.9,9.9,0,0,0,1.7-6.2,10.37,10.37,0,0,0-2.7-7.4C100.6,78.9,96.5,77.9,90.3,77.9Z"/><rect class="cls-5" x="154.64" y="52.63" width="45.9" height="3.6" transform="translate(62.19 199.97) rotate(-68.63)"/><rect class="cls-5" x="117.94" y="48.41" width="3.6" height="42.4" transform="translate(-11.13 114.95) rotate(-49.28)"/><rect class="cls-5" x="88.29" y="113.01" width="39.2" height="3.6" transform="translate(-24.42 29.28) rotate(-13.9)"/><rect class="cls-5" x="96.08" y="130.28" width="3.6" height="42.4" transform="translate(-77.14 107.98) rotate(-43.17)"/><rect class="cls-5" x="124.87" y="148.33" width="33.1" height="3.6" transform="translate(-59.31 197.54) rotate(-60)"/><rect class="cls-5" x="187.93" y="125.58" width="3.6" height="28.5" transform="translate(-45.44 155.5) rotate(-40.2)"/><rect class="cls-5" x="199.31" y="33.5" width="3.6" height="113.6" transform="translate(-9.15 24.04) rotate(-6.69)"/><path class="cls-4" d="M238.8,78.9H223.6v50c0,2.9-.6,5-1.9,6.4a7,7,0,0,1-10,0c-1.3-1.4-1.9-3.5-1.9-6.4v-50H194.5c-2.4,0-4.1-.5-5.3-1.6a5.1,5.1,0,0,1-1.7-4.2,5.17,5.17,0,0,1,1.8-4.2,7.87,7.87,0,0,1,5.2-1.5h44.3c2.4,0,4.2.5,5.4,1.6a5.8,5.8,0,0,1,0,8.4A8.28,8.28,0,0,1,238.8,78.9Z"/><circle class="cls-5" cx="158.6" cy="105.7" r="32.9"/><ellipse class="cls-6" cx="158.6" cy="105.9" rx="17.1" ry="16.8"/></g></g></svg>