<svg id="Layer_1" data-name="Layer 1" xmlns="http://www.w3.org/2000/svg" viewBox="0 0 246.5 242"><defs><style>.cls-1{fill:#5a5a5a;}.cls-2{fill:gray;}.cls-3{fill:#d9d9d8;}.cls-4{fill:#272626;stroke:#fff;stroke-miterlimit:10;}.cls-5{fill:#df1f26;}.cls-6{fill:#fff;}</style></defs><title>Artboard 1</title><g id="Layer_1-2" data-name="Layer 1-2"><circle class="cls-1" cx="192.4" cy="16.8" r="15.8"/><circle class="cls-2" cx="90.2" cy="44.2" r="15.8"/><circle class="cls-1" cx="209.8" cy="166.1" r="15.8"/><circle class="cls-3" cx="124.6" cy="181.3" r="15.8"/><circle class="cls-3" cx="71.1" cy="123.3" r="15.8"/><path class="cls-4" d="M55.1,116.6a20.19,20.19,0,0,1-12.6,19,35.32,35.32,0,0,1-14.7,2.8c-6.8,0-12.4-1.3-16.8-3.8a21.54,21.54,0,0,1-7.6-7.4,17.16,17.16,0,0,1-2.9-9,5.82,5.82,0,0,1,1.8-4.3,6.27,6.27,0,0,1,4.5-1.8,5.49,5.49,0,0,1,3.7,1.4,10.25,10.25,0,0,1,2.6,4.2,28.48,28.48,0,0,0,2.8,5.5,10.69,10.69,0,0,0,4.3,3.6,15.37,15.37,0,0,0,7.3,1.4,17.26,17.26,0,0,0,10.1-2.9,8.7,8.7,0,0,0,3.9-7.2,7.68,7.68,0,0,0-2.1-5.6,14.33,14.33,0,0,0-5.4-3.3c-2.2-.8-5.2-1.5-8.9-2.4a60.11,60.11,0,0,1-12.4-4.1,21.06,21.06,0,0,1-7.9-6.3,16.09,16.09,0,0,1-2.9-10A16.55,16.55,0,0,1,5,76.3a20.22,20.22,0,0,1,9-6.8,36.18,36.18,0,0,1,13.8-2.4,34.49,34.49,0,0,1,11,1.6,23.16,23.16,0,0,1,7.7,4.2A18.44,18.44,0,0,1,51,78.4,12.22,12.22,0,0,1,52.4,84a6.27,6.27,0,0,1-1.8,4.5,5.71,5.71,0,0,1-4.4,2,4.8,4.8,0,0,1-3.6-1.2,17,17,0,0,1-2.7-3.9,19.34,19.34,0,0,0-4.5-6.1c-1.8-1.5-4.6-2.2-8.5-2.2a14.88,14.88,0,0,0-8.7,2.4q-3.3,2.4-3.3,5.7A6.63,6.63,0,0,0,16,88.8a8.64,8.64,0,0,0,3.1,2.6,20,20,0,0,0,4,1.7c1.3.4,3.6,1,6.7,1.8a90.51,90.51,0,0,1,10.5,3,31.54,31.54,0,0,1,8,4,17.35,17.35,0,0,1,5.2,5.9A22.15,22.15,0,0,1,55.1,116.6Z"/><path class="cls-4" d="M93.7,110.4H80.9v19.5c0,2.8-.7,4.9-2,6.3a7,7,0,0,1-9.9.3l-.2-.2c-1.3-1.4-1.9-3.5-1.9-6.3V76.9q0-4.65,2.1-6.6c1.4-1.3,3.6-2,6.7-2H93.6a50,50,0,0,1,12.2,1.2,18.46,18.46,0,0,1,7.3,3.9,16.67,16.67,0,0,1,4.7,6.7,22.63,22.63,0,0,1,1.6,8.9c0,7-2.2,12.3-6.5,15.9S102.2,110.4,93.7,110.4ZM90.3,78.9H80.9v21h9.4a28.37,28.37,0,0,0,8.2-1,8.72,8.72,0,0,0,5-3.4,10.39,10.39,0,0,0,1.7-6.2,10.59,10.59,0,0,0-2.7-7.4C100.6,79.9,96.5,78.9,90.3,78.9Z"/><rect class="cls-5" x="154.64" y="53.77" width="45.9" height="3.6" transform="matrix(0.36, -0.93, 0.93, 0.36, 61.12, 200.69)"/><rect class="cls-5" x="117.92" y="49.39" width="3.6" height="42.4" transform="translate(-11.89 115.27) rotate(-49.28)"/><rect class="cls-5" x="88.3" y="114" width="39.2" height="3.6" transform="translate(-24.66 29.31) rotate(-13.9)"/><rect class="cls-5" x="96.09" y="131.3" width="3.6" height="42.4" transform="translate(-77.84 108.26) rotate(-43.17)"/><rect class="cls-5" x="124.91" y="149.34" width="33.1" height="3.6" transform="translate(-60.16 198.08) rotate(-60)"/><rect class="cls-5" x="187.91" y="126.6" width="3.6" height="28.5" transform="translate(-46.1 155.72) rotate(-40.2)"/><rect class="cls-5" x="199.3" y="34.5" width="3.6" height="113.6" transform="translate(-9.27 24.05) rotate(-6.69)"/><path class="cls-4" d="M238.8,79.9H223.6v50c0,2.9-.6,5-1.9,6.4a7,7,0,0,1-9.9.1l-.1-.1c-1.3-1.4-1.9-3.5-1.9-6.4v-50H194.5c-2.4,0-4.1-.5-5.3-1.6a5.92,5.92,0,0,1,.1-8.4,8,8,0,0,1,5.2-1.5h44.3c2.4,0,4.2.5,5.4,1.6a5.83,5.83,0,0,1,.2,8.2l-.2.2A8.7,8.7,0,0,1,238.8,79.9Z"/><circle class="cls-5" cx="158.59" cy="106.7" r="32.9" transform="translate(-10.67 195.5) rotate(-61.62)"/><ellipse class="cls-6" cx="158.6" cy="106.9" rx="17.1" ry="16.8"/></g><rect class="cls-5" y="203" width="246.5" height="39"/><path class="cls-6" d="M124,216.3a22.4,22.4,0,0,1-2.27,10.31,13.23,13.23,0,0,1-6.21,6.26l4.71,7.29h-6.66l-3.3-6.08h-.48a9.86,9.86,0,0,1-7.41-2.74,10.43,10.43,0,0,1-2.67-7.6,21.87,21.87,0,0,1,1.84-9,14.59,14.59,0,0,1,5.06-6.34,12.93,12.93,0,0,1,7.46-2.21q4.74,0,7.33,2.67C123.15,210.6,124,213.1,124,216.3Zm-10.39-5.36a6,6,0,0,0-4.12,1.7,11.25,11.25,0,0,0-2.94,4.66,19,19,0,0,0-1.07,6.44,6,6,0,0,0,1.24,4.12,4.39,4.39,0,0,0,3.48,1.39,6.1,6.1,0,0,0,4.09-1.61,10.58,10.58,0,0,0,2.88-4.57,19.86,19.86,0,0,0,1-6.62,6.1,6.1,0,0,0-1.21-4.07A4.17,4.17,0,0,0,113.63,210.94Z"/><path class="cls-6" d="M140.81,227.25H132l-3.2,6.46h-5.93l14.21-27.24H144l2.73,27.24h-5.51Zm-.28-4.83-.48-6.49c-.12-1.62-.18-3.18-.18-4.69v-.67c-.55,1.48-1.22,3.05-2,4.71l-3.48,7.14Z"/></svg>