<?xml version="1.0" encoding="utf-8"?>
<!-- Generator: Adobe Illustrator 23.0.1, SVG Export Plug-In . SVG Version: 6.00 Build 0)  -->
<svg version="1.1" id="Layer_1" xmlns="http://www.w3.org/2000/svg" xmlns:xlink="http://www.w3.org/1999/xlink" x="0px" y="0px"
	 viewBox="0 0 897.7 232.9" style="enable-background:new 0 0 897.7 232.9;" xml:space="preserve">
<style type="text/css">
	.st0{fill:#5A5A5A;}
	.st1{fill:#808080;}
	.st2{fill:#D9D9D8;}
	.st3{fill:#272626;stroke:#FFFFFF;stroke-miterlimit:10;}
	.st4{fill:#DF1F26;}
	.st5{fill:#FFFFFF;}
	.st6{fill:#ED1C24;}
	.st7{fill:#272626;}
</style>
<g>
	<circle class="st0" cx="819.9" cy="34" r="15.8"/>
	<circle class="st1" cx="717.7" cy="61.4" r="15.8"/>
	<circle class="st0" cx="837.3" cy="183.3" r="15.8"/>
	<circle class="st2" cx="752.1" cy="198.5" r="15.8"/>
	<circle class="st2" cx="698.6" cy="140.5" r="15.8"/>
	<g>
		<path class="st3" d="M682.6,133.8c0,4.2-1.1,7.9-3.2,11.2c-2.1,3.3-5.3,5.9-9.4,7.8c-4.1,1.9-9,2.8-14.7,2.8
			c-6.8,0-12.4-1.3-16.8-3.8c-3.1-1.8-5.7-4.3-7.6-7.4c-2-3.1-2.9-6.1-2.9-9c0-1.7,0.6-3.1,1.8-4.3c1.2-1.2,2.7-1.8,4.5-1.8
			c1.5,0,2.7,0.5,3.7,1.4c1,0.9,1.9,2.3,2.6,4.2c0.9,2.2,1.8,4,2.8,5.5c1,1.5,2.4,2.7,4.3,3.6c1.8,1,4.3,1.4,7.3,1.4
			c4.1,0,7.5-1,10.1-2.9c2.6-1.9,3.9-4.3,3.9-7.2c0-2.3-0.7-4.1-2.1-5.6c-1.4-1.4-3.2-2.5-5.4-3.3c-2.2-0.8-5.2-1.5-8.9-2.4
			c-4.9-1.2-9.1-2.5-12.4-4.1c-3.3-1.5-6-3.7-7.9-6.3c-2-2.7-2.9-6-2.9-10c0-3.8,1-7.2,3.1-10.1c2.1-2.9,5.1-5.2,9-6.8
			c3.9-1.6,8.5-2.4,13.8-2.4c4.2,0,7.9,0.5,11,1.6c3.1,1,5.6,2.4,7.7,4.2c2,1.7,3.5,3.6,4.5,5.5c0.9,1.9,1.4,3.8,1.4,5.6
			c0,1.7-0.6,3.2-1.8,4.5c-1.2,1.3-2.6,2-4.4,2c-1.6,0-2.8-0.4-3.6-1.2c-0.8-0.8-1.7-2.1-2.7-3.9c-1.3-2.6-2.8-4.6-4.5-6.1
			c-1.8-1.5-4.6-2.2-8.5-2.2c-3.6,0-6.5,0.8-8.7,2.4c-2.2,1.6-3.3,3.5-3.3,5.7c0,1.4,0.4,2.6,1.1,3.6c0.8,1,1.8,1.9,3.1,2.6
			c1.3,0.7,2.6,1.3,4,1.7c1.3,0.4,3.6,1,6.7,1.8c3.9,0.9,7.4,1.9,10.5,3c3.1,1.1,5.8,2.4,8,4c2.2,1.6,3.9,3.5,5.2,5.9
			C682,127.3,682.6,130.3,682.6,133.8z"/>
	</g>
	<g>
		<path class="st3" d="M721.2,127.6h-12.8v19.5c0,2.8-0.7,4.9-2,6.3c-1.3,1.4-3,2.2-5,2.2c-2.1,0-3.8-0.7-5.1-2.1
			c-1.3-1.4-1.9-3.5-1.9-6.3V94.1c0-3.1,0.7-5.3,2.1-6.6c1.4-1.3,3.6-2,6.7-2h17.9c5.3,0,9.4,0.4,12.2,1.2c2.8,0.8,5.2,2.1,7.3,3.9
			c2,1.8,3.6,4,4.7,6.7c1.1,2.6,1.6,5.6,1.6,8.9c0,7-2.2,12.3-6.5,15.9C736.1,125.8,729.7,127.6,721.2,127.6z M717.8,96.1h-9.4v21
			h9.4c3.3,0,6-0.3,8.2-1c2.2-0.7,3.9-1.8,5-3.4c1.2-1.6,1.7-3.6,1.7-6.2c0-3-0.9-5.5-2.7-7.4C728.1,97.1,724,96.1,717.8,96.1z"/>
	</g>
	
		<rect x="782.1" y="70.8" transform="matrix(0.3644 -0.9312 0.9312 0.3644 444.1257 795.8334)" class="st4" width="45.9" height="3.6"/>
	
		<rect x="745.4" y="66.6" transform="matrix(0.6524 -0.7579 0.7579 0.6524 193.2254 596.8316)" class="st4" width="3.6" height="42.4"/>
	
		<rect x="715.8" y="131.2" transform="matrix(0.9707 -0.2402 0.2402 0.9707 -10.4087 180.5478)" class="st4" width="39.2" height="3.6"/>
	
		<rect x="723.6" y="148.5" transform="matrix(0.7293 -0.6842 0.6842 0.7293 80.2413 542.2321)" class="st4" width="3.6" height="42.4"/>
	<rect x="752.4" y="166.5" transform="matrix(0.5 -0.866 0.866 0.5 238.6993 750.0934)" class="st4" width="33.1" height="3.6"/>
	
		<rect x="815.4" y="143.8" transform="matrix(0.7638 -0.6455 0.6455 0.7638 91.0353 564.8158)" class="st4" width="3.6" height="28.5"/>
	
		<rect x="826.8" y="51.7" transform="matrix(0.9932 -0.1165 0.1165 0.9932 -7.0003 97.2696)" class="st4" width="3.6" height="113.6"/>
	<g>
		<path class="st3" d="M866.3,97.1h-15.2v50c0,2.9-0.6,5-1.9,6.4c-1.3,1.4-2.9,2.1-5,2.1c-2.1,0-3.7-0.7-5-2.1
			c-1.3-1.4-1.9-3.5-1.9-6.4v-50H822c-2.4,0-4.1-0.5-5.3-1.6c-1.2-1-1.7-2.4-1.7-4.2c0-1.8,0.6-3.2,1.8-4.2c1.2-1,2.9-1.5,5.2-1.5
			h44.3c2.4,0,4.2,0.5,5.4,1.6c1.2,1.1,1.8,2.5,1.8,4.2c0,1.7-0.6,3.1-1.8,4.2C870.5,96.6,868.7,97.1,866.3,97.1z"/>
	</g>
	<g>
		<circle class="st4" cx="786.1" cy="123.9" r="32.9"/>
		<ellipse class="st5" cx="786.1" cy="124.1" rx="17.1" ry="16.8"/>
	</g>
</g>
<g transform="matrix(1.25,0,0,-1.25,-361.7335,223.03972)">
	<path class="st6" d="M497.7,153.3c-130.4,0-199.5-92.5-199.5-92.5l28.3-19.1c0,0,3.4,8.6,11.3,20.9c0-3.1,0.5-5.2,0.5-5.2
		c5-38.9,42.8-37.9,42.8-37.9h234.1c0,0,38.3-1.1,43.3,37.8c0,0,0.4,2,0.4,5.1c7.7-12,11.1-20.3,11.1-20.3l28.3,18.9
		C698.2,60.8,628,153.3,497.7,153.3"/>
	<path class="st5" d="M652.6,57.7c0,0-5.1-29.7-38-29.7H380.9c-32.9,0-37.5,30-37.5,30c-1.3,8,0.3,13.4,2.7,17.2
		c23.7,31.1,70.5,73,151.4,73c81.6,0,128.8-42.4,152.5-73.6C652.8,71.1,653.8,65.4,652.6,57.7"/>
	<path class="st6" d="M429.4,90.1l3.9,8.4h-50l-3.9-8.4h19.4l-20.1-40.8h12.9l20,40.8L429.4,90.1L429.4,90.1z"/>
	<path class="st6" d="M610,62.9c-3.7-5.2-9-7.9-11.8-5.9c-2.8,2-2,7.8,1.7,13.1s9,7.9,11.8,5.9C614.4,73.9,613.7,68.1,610,62.9
		 M566.2,63.1c-3.7-5.2-9-7.9-11.8-5.9c-2.8,2-2,7.8,1.7,13.1c3.7,5.2,9,7.9,11.8,5.9C570.7,74.1,569.9,68.3,566.2,63.1 M511.8,66.9
		c0,0,2.4,8.1,10.3,11.4c0,0,2.2,0.8,3.4-0.2c0,0,1.7-1.6-0.3-4.6c-1.8-2.7-6.1-7.5-10.7-9.1C514.4,64.3,510.2,62.5,511.8,66.9
		 M435.5,63.1c-3.7-5.2-9-7.9-11.8-5.9c-2.8,2-2,7.8,1.7,13.1c3.7,5.2,9,7.9,11.8,5.9C440,74.1,439.2,68.3,435.5,63.1 M622.4,56.7
		c0,0-2.5-1.2-3.6,0c-1.1,1.1-0.1,3.2-0.1,3.2l10.6,22.2h-10.8l-1.6-3c-6.3,5.5-18.1,2.7-25.4-5c-4.2-4.4-6.6-9.7-7-14.2
		c-1.2-0.8-3.2-2-5.8-3c0,0-2.5-1.2-3.6,0c-1.1,1.1-0.1,3.2-0.1,3.2l18.8,38.6h-10.8l-9.8-19.4c-6.3,5.5-18.1,2.7-25.5-5
		c-1.5-1.6-2.7-3.2-3.8-4.9l0,0c-0.1-0.1-0.1-0.3-0.2-0.4c-0.2-0.4-0.5-0.8-0.7-1.2C537.1,57.7,529.8,56,529.8,56
		c-15.4-4.6-17.1,2.9-17.1,2.9c17.2,6.4,23.7,13.9,23.1,19.7c-0.6,5.8-8.5,6.1-8.5,6.1c-13,0.8-24.3-8.3-27.1-17.2
		c-0.8-2.7-1.1-5.5-0.6-8.1c-5.2-2.8-8.2-3.2-8.2-3.2c-4.3-1.4-4.9,0.7-5.4,1.9c-0.5,1.3-2.5,12.4-2.5,12.4l18.3,12h-11.2L476.9,74
		c-3.1-1.3-1.9,2-1.9,2l11.2,22.7h-10.8l-18.2-36.9c-2.1-1.3-6.3-3.7-9.3-4.9c0,0-2.5-1.2-3.6,0c-1.1,1.1-0.1,3.2-0.1,3.2l10.6,22.2
		H444l-1.6-3c-6.3,5.5-18.1,2.7-25.4-5c-7.3-7.7-9.2-17.8-4.2-22.6c4-3.8,11.2-3.1,17.7,1.2c0,0,1.6,1.4,2.5-0.2
		c0.9-1.7,4.6-5.6,13.2-2.2c2.7,1.1,5.2,2.3,7.3,3.5l-2.2-4.5H462l5.4,10.9l4.7,3c0,0,1.4,1.1,2-1.3c0,0,2.3-9.2,3.2-10.4
		c0.9-1.2,2.7-3.9,10.3-1.7c5.8,1.7,11.2,3.7,14.1,4.9c2.5-3.5,7.4-5.9,15.4-5.9c11.8,0,20.1,5.6,23.7,8.6c0.3-2.3,1.2-4.4,2.7-5.9
		c4-3.8,11.2-3.1,17.7,1.2c0,0,1.6,1.4,2.5-0.2c0.9-1.7,4.6-5.6,13.2-2.2c3.9,1.5,6.5,3,8.3,4.2c0.5-1.2,1.1-2.3,2.1-3.2
		c4-3.8,11.2-3.1,17.7,1.3c0,0,1.6,1.4,2.5-0.2c0.9-1.7,4.6-5.6,13.2-2.2c8.6,3.4,11,6.4,11,6.4l-2.2,3.8
		C629.2,60.4,626.5,58.3,622.4,56.7"/>
</g>
<rect x="567" y="20.1" class="st7" width="1" height="192.7"/>
</svg>
